<?xml version="1.0" encoding="UTF-8"?>
<svg id="Layer_3" data-name="Layer 3" xmlns="http://www.w3.org/2000/svg" viewBox="0 0 991.17 338.84">
  <defs>
    <style>
      .cls-1 {
        fill: #194a90;
      }
    </style>
  </defs>
  <path class="cls-1" d="M541.46,226.64v-16.34c0-1.46,6.32-1.46,6.32,0v23.64c0,1.49-5.14,1.27-6.77.4-3.88-2.07-10.43-14.07-15.34-16.73v17.38c-1.7-.08-4.77.6-5.42-1.14-.57-1.52-.49-19.71-.15-22.18.43-3.09,3.23-3.15,6.01-1.74,4.16,2.11,10.53,13.89,15.35,16.72Z"/>
  <path class="cls-1" d="M126.91,234.99v-25.72h14.61c2.34,0,6.4,2.77,7.15,4.83,1.75,4.78-2.81,6.93-2.79,7.34s4.57,2.18,4.78,6.27c.15,2.87-3.75,7.29-6.77,7.29h-16.98ZM142.51,218.83c5.27-4.59-6.78-5.51-10.07-4.7v5.57c2.49-.24,8.31.66,10.07-.87ZM144.1,229.97c.55-.35,1.05-2.28.98-2.96-.46-4.06-9.44-1.98-12.65-2.46v6.26c.42.37,10.55-.14,11.67-.85Z"/>
  <path class="cls-1" d="M278.91,209.26c7.33,1.07,10.51,8.62,6.29,13.88-1.08,1.34-3.31,2.04-3.42,2.2-1.2,1.8,5.71,7.36,6.21,9.64-1.76-.29-5.66.52-6.95-.14-.52-.27-5.33-7.79-5.84-8.05-1.21-.62-4.52.11-6.16-.15-.31,4.74,2.22,9.49-5.52,8.35v-25.72c4.71.48,10.91-.66,15.4,0ZM280.78,214.92c-.91-1.28-9.63-.65-11.74-.8v8.35c.61.53,9.52-.49,10.74-1.33,1.3-.9,1.66-5.28,1-6.22Z"/>
  <path class="cls-1" d="M733.74,209.26c7.52.93,10.34,6.94,7.57,12.92-.95,2.04-4.72,3.42-4.72,4.11,0,.53,6.52,7.16,7.03,8.69-11.15,2.89-8.62-10.2-18.95-8.34-.32,4.74,2.22,9.49-5.52,8.35v-25.72c4.57.4,10.19-.55,14.61,0ZM724.65,222.47c3.83-.21,11.46.66,11.91-3.82.68-6.71-6.85-4.05-11.91-4.53v8.35Z"/>
  <path class="cls-1" d="M181.21,208.74c21.45-2.33,23.92,26.08,2.74,26.76-19.76.64-21.54-24.72-2.74-26.76ZM190.61,215.75c-7.61-7.01-21.87,1.44-15.41,11.13,7.22,10.82,25.37-1.95,15.41-11.13Z"/>
  <path class="cls-1" d="M698.6,209.26v4.87h-15v5.56h13.42v4.87h-13.42v5.56h14.61c1.4,0,1.32,3.88,1.18,4.87h-21.32v-25.72h20.53Z"/>
  <path class="cls-1" d="M389.86,209.26c.13.98.21,4.87-1.18,4.87h-13.82v5.56h13.42v4.87h-13.42v5.56h14.61c1.61,0,1.61,4.87,0,4.87h-20.14v-25.72h20.53Z"/>
  <path class="cls-1" d="M896.01,209.26c.13.98.21,4.87-1.18,4.87h-13.82v5.56h12.24c1.61,0,1.61,4.87,0,4.87h-12.24v5.56h14.61c1.61,0,1.61,4.87,0,4.87h-20.14v-25.72h20.53Z"/>
  <path class="cls-1" d="M109.54,234.98c-7.83,1.29-5.35-2.32-7.81-5.13-.71-.81-13.63-1-15.02.67-2.75,3.32.76,5.51-7.97,4.45,2.22-2.93,11.41-24.86,12.76-25.6.91-.5,4.86-.32,5.81.57l12.22,25.03ZM98.48,224.55c.58-.45-3.74-9-4.72-8.34l-3.96,8.33h8.68Z"/>
  <path class="cls-1" d="M424.49,209.36l11.95,25.63c-1.41-.23-4.41.43-5.4-.11-.46-.25-2.16-5.08-2.62-5.33-.58-.32-12.57-.33-13.59-.02-1.72.52-2.15,4.89-3,5.35-1.02.55-3.98-.11-5.4.11,1.4-3.16,10.63-24.88,11.97-25.6.53-.29,5.61-.29,6.08-.02ZM422.22,216.22c-1.15-.99-1.36.26-1.75.89-1.32,2.13-1.99,5.31-3.76,7.45h8.68c-.25-1.2-2.81-8.03-3.17-8.33Z"/>
  <path class="cls-1" d="M223.25,209.26v17.03c0,1.74,4.48,4.48,6.73,4.57,2.33.09,6.7-1.86,6.7-3.87v-16.69c0-1.46,6.32-1.46,6.32,0v14.6c0,.23-1.16,3.79-1.4,4.33-3.53,7.65-16.87,8.31-21.86,1.55-.4-.55-2.01-3.5-2.01-3.79v-17.73h5.53Z"/>
  <path class="cls-1" d="M590.34,215.47c-.73.45-4.28-1.78-5.89-1.99-14.83-1.99-16.42,17.38-2.32,17.39,7.39,0,5.99-3.2,5.92-8.4h5.54c-.22,5.86,2,9.84-5.54,12.16-20.2,6.24-29.51-18.53-12.39-24.81,3.28-1.21,15.12-1.77,16.3,1.97.2.62-1.39,3.53-1.63,3.68Z"/>
  <path class="cls-1" d="M655.93,215.51c-.36.22-5.28-2.16-8.27-2.13-4.08.04-6.73,2.49-3.09,4.87,4.18,2.73,15.22,1.18,14.51,10.06-.62,7.71-11.14,8.02-17.55,5.84-1.68-.57-5.73-1.78-4.73-3.79,2.39-4.78,3.46-1.86,5.97-.78,3.01,1.3,9.11,2.71,10.01-1.23.91-3.97-6.88-3.85-10.43-5.35-8.7-3.69-5.73-13.03,3.14-14.25,2.41-.33,11.26.72,12,3.06.18.57-1.38,3.6-1.57,3.72Z"/>
  <path class="cls-1" d="M473.55,211.36c-2.48,6.38-2.98,2.97-6.88,2.23-2.5-.47-7.82-.8-8.07,2.26-.41,4.94,13.91,2.82,15.57,9.2,2.73,10.49-11.69,12.9-19.53,8.16-4.34-2.63-1.21-2.77-.03-5.87,2.4,2.56,13.73,5.8,14.25,1.02.64-5.87-16.27-1.96-15.91-12.5.31-9.04,14.19-8.32,20.59-4.5Z"/>
  <path class="cls-1" d="M935.48,211.36c-2.48,6.38-2.98,2.97-6.88,2.23-2.56-.48-7.83-.78-8.15,2.31-.43,4.15,11.48,3.47,14.63,7.28,3.09,3.74.77,9.31-3.77,11.26-6.38,2.74-12.46-.03-17.93-2.94l3.55-4.15c2.18,2.87,13.37,5.58,13.87,1.01.55-5.06-13.9-3.06-15.68-9.86-2.84-10.88,12.71-11.84,20.36-7.14Z"/>
  <path class="cls-1" d="M772.05,226.64c1.19.97,1.35-.25,1.75-.89,1.92-3.05,5.47-14.17,7.3-15.82,1.36-1.23,4.13-.54,5.94-.67l-10.97,25.29c-.65.74-5.79.78-6.48,0l-10.97-25.29c1.82.13,4.59-.56,5.94.67,2.2,1.99,5.82,15.36,7.49,16.7Z"/>
  <path class="cls-1" d="M837.84,215.75c-4.68,3.94-3.17,11.18,2.34,13.81,7.37,3.52,10.36-1.82,12.68-1.43,1.42.24,3.44,2.27,2.14,3.75-3.61,4.11-12.45,4.27-17.47,2.1-14.73-6.37-8.03-27.16,9.71-25.25,2.63.28,10.7,2.96,8.55,5.75-2.62,3.41-4.33.18-7.29-.59-3.52-.93-7.93-.45-10.66,1.85Z"/>
  <path class="cls-1" d="M51.11,209.26v20.86h12.24c1.61,0,1.61,4.87,0,4.87h-17.77v-25.72h5.53Z"/>
  <path class="cls-1" d="M337.74,209.26v20.86h12.24c1.61,0,1.61,4.87,0,4.87h-17.77v-25.72h5.53Z"/>
  <rect class="cls-1" x="804.41" y="209.26" width="5.53" height="25.72"/>
  <path class="cls-1" d="M494.09,234.99v-25.72c3.23.06,5.11-.9,5.57,2.4.34,2.5.42,20.65-.15,22.18-.65,1.74-3.72,1.06-5.42,1.14Z"/>
  <g>
    <path class="cls-1" d="M411.36,122.57v17.45c0,.05-.78.74-.84.74h-52.75v7.37h48.01v14.99c0,.05-.78.74-.84.74h-47.17v8.36h52.75c.06,0,.84.69.84.74v16.71c0,.05-.78.74-.84.74h-76.76v-67.83h77.59Z"/>
    <path class="cls-1" d="M251.7,122.57v40.55c0,2.33,2.03,5.69,4.28,7.04,7.35,4.43,34.37,4.66,42.23.98,1.85-.87,3.24-2.03,4.18-3.69.49-.86,1.78-4.1,1.78-4.82v-40.06h24v43.01c0,7.34-8.17,16.55-15.26,19.99-22,10.68-85.22,9.23-85.22-21.95v-41.04h24Z"/>
    <g>
      <path class="cls-1" d="M44.04,122.57l69.52-.02c7.38.75,15.57,1.75,21.2,6.4,8.75,7.22,7.9,21.87-3.64,26.31,9.46,4.09,12.73,11.49,10.45,20.51-3.1,12.25-18.17,14.14-30.25,14.66-22.11.95-45.09-.75-67.29-.02v-67.83ZM68.05,149.11h43.82c.18,0,3.12-.72,3.48-.87,4.4-1.77,2.1-7.49-.69-7.49h-46.61v8.36ZM114.66,163.85h-46.61v8.36h47.17c.12,0,1.79-1.14,1.97-1.35,2.05-2.44.89-6.48-2.53-7.01Z"/>
      <path class="cls-1" d="M170.2,122.57v49.64h52.19c.06,0,.84.69.84.74v16.71c0,.05-.78.74-.84.74h-76.2v-67.83h24Z"/>
    </g>
  </g>
  <path class="cls-1" d="M668.7,161.39v-38.83h21.77v67.34h-19.26l-49.4-38.83v38.83h-22.33v-66.6c0-.05.78-.74.84-.74h18.98l47.16,37.61,2.25,1.22ZM694.38,122.57l1.23,2.11,52.92,65.46c3.49.02,18.48,1.08,20.49-.38,15.39-20.47,31.86-40.32,47.5-60.65,1.59-2.06,3.49-4.25,4.57-6.54h-28.75l-34.06,44.24c-1.07.22-.72-.31-.99-.62-10.08-11.64-19.59-24.58-29.32-36.58-1.78-2.19-3.82-4.61-5.13-7.04h-28.47ZM861.01,122.57c-.06,0-.84.69-.84.74v66.6h78.71v-16.96c0-.05-.78-.74-.84-.74h-53.87v-49.64h-23.17ZM850.12,123.3c0-.05-.78-.74-.84-.74h-23.17v67.34h24v-66.6Z"/>
  <g>
    <path class="cls-1" d="M563.19,119.12c7.46,1.91,4.51,9.68,4.95,14.93-.32.81-3.89,1.33-5.16,1.85-3.42,1.39-5.76,3.87-5.69,7.33l35.38,44.06,1.77,3.1c-9.5.28-18.89-.39-28.35-.59l-36.4-45.85-51.09-.23c-11.7-.59-21.13-9.28-20.36-19.68h47.73c.56,0,1.23-2.53,1.93-3.21.78-.77,2.1-.87,2.82-1.7h52.47ZM555.38,124.04c.38-.07,2.34.28,1.39-.49h-41.31c-.92.71.48.4.84.49,1.51.38,1.69.44,3.35.49,9.84.32,23.43.65,32.94-.49.79,1.28,2.22.1,2.79,0ZM477.78,138.3c-5.91-.53-9.69-4.79-13.39-8.36.76,4.29,6.09,7.59,10.57,8.63.58.13,2.83.73,2.82-.27ZM565.42,161.89c-2.98-6.05-8.04-11.12-12.17-16.55l-1.77-4.58c-.22,1.95-.05,3.18.81,4.94,2.51,5.16,9.26,11.61,13.14,16.2Z"/>
    <path class="cls-1" d="M526.91,148.61l-18.42,23.59h32.94c3.34,5.87,9.69,10.98,13.29,16.56.36.55.85.89.66,1.63h-90.43c.27-1.57,1.69-2.99,2.67-4.29,9.51-12.61,20.05-24.64,29.15-37.49h30.14Z"/>
    <path class="cls-1" d="M519.65,124.53c-1.66-.05-1.84-.11-3.35-.49,1.05.07,2.72-.38,3.35.49Z"/>
    <path class="cls-1" d="M555.38,124.04c-.57.1-2,1.28-2.79,0,.88-.11,1.89.07,2.79,0Z"/>
  </g>
</svg>