<?xml version="1.0" encoding="UTF-8"?>
<svg id="Layer_1" data-name="Layer 1" xmlns="http://www.w3.org/2000/svg" viewBox="0 0 727.31 232.03">
  <defs>
    <style>
      .cls-1 {
        fill: #154071;
      }

      .cls-2 {
        fill: #fefeff;
      }

      .cls-3 {
        fill: #fff;
      }
    </style>
  </defs>
  <polygon points="714 0 619.76 216.61 0 216.61 94.24 0 714 0"/>
  <path d="M727.31,14.72l-94.24,217.31H15.42c.81-2.6,2.61-8.76,4.13-10.78.32-.43.54-.59,1.09-.49l601.8-.06L712.95,14.72h14.36Z"/>
  <polygon class="cls-2" points="687.37 18.23 607.14 199.09 27.33 199.09 108.26 18.23 687.37 18.23"/>
  <polygon class="cls-1" points="676.86 25.24 603.29 192.78 37.84 192.78 112.46 25.24 676.86 25.24"/>
  <path class="cls-3" d="M578.77,152.82l-11.68,23.86c-25.02-.83-50.64,1-75.58,0-17.14-.69-40.47-2.4-52.16-16.52-20.54-24.8,13.53-73.27,32.91-90.42,44.36-39.27,107.43-25.9,161.86-28.38l-10.58,22.01-2.34,1.16c-28.8,2.47-66.01-5.16-93.26,4.14-20.01,6.82-38.2,31.72-45.99,50.73-4.27,10.42-7.29,25.48,5.73,30.97,1.82.77,9.12,2.45,10.86,2.45h80.23Z"/>
  <path class="cls-3" d="M302.7,41.36c.96.92-9.96,21.43-11.67,23.72l-62.49.23-55.12,111.35h-41.69l54.65-111.46h-60.96l11.56-23.83h165.71Z"/>
  <path class="cls-3" d="M374.87,41.36l-39.36,79.44c-2.66,6.19-8.6,21.02-4.1,26.77,3.72,4.75,17.58,6.33,23.46,6.68,18.2,1.06,37.43-.85,55.73-.03l-10.43,21.99c-19.77,1.02-40.04.12-60.01.46-17.59-1.98-36.75.63-49.03-14.74-9.32-11.68-3.85-22.72.73-35.04l42.72-85.55h40.29Z"/>
</svg>